<svg width="68" height="86" viewBox="0 0 68 86" fill="none" xmlns="http://www.w3.org/2000/svg">
<g clip-path="url(#clip0)">
<path d="M54.68 42.8203C54.68 40.7022 55.5219 38.6705 57.0212 37.1707C58.5205 35.6709 60.5547 34.8253 62.678 34.8193V5.28655C62.677 3.88477 62.1184 2.54069 61.1247 1.54949C60.1311 0.558284 58.7837 0.000991706 57.3785 0L5.31449 0C3.90531 0.000991709 2.55412 0.559862 1.55768 1.55388C0.561232 2.54789 0.000994136 3.89578 0 5.30152L0 80.7022C0 82.1073 0.559523 83.4548 1.55548 84.4483C2.55144 85.4418 3.90225 86 5.31074 86H57.386C58.7889 86 60.1344 85.4443 61.1267 84.4551C62.119 83.4659 62.677 82.1241 62.678 80.7247V50.8212C60.5547 50.8153 58.5205 49.9697 57.0212 48.4699C55.5219 46.9701 54.68 44.9384 54.68 42.8203Z" fill="#EE7203"/>
<path d="M42.5422 23.8606H40.0314V16.1854C43.6307 16.103 45.177 16.2715 45.177 19.9818C45.177 21.8988 44.674 23.8606 42.5497 23.8606H42.5422ZM48.8288 26.4028V26.3204C51.9214 24.9052 52.7171 22.524 52.7171 19.2068C52.7171 12.9955 49.7145 10.5956 43.6869 10.5956H32.9379V41.7832H40.2903V29.4879H42.7149C44.4301 29.6152 45.0156 30.8657 45.222 32.7826C45.2745 33.2693 45.2745 37.208 45.2708 39.7352C45.2707 39.8262 45.282 39.9167 45.3046 40.0048C45.3711 40.4982 45.6185 40.9496 45.999 41.2718C46.3795 41.594 46.8662 41.7642 47.3651 41.7495H52.4769V30.4463C52.4769 28.2261 50.8668 26.8596 48.8175 26.4028" fill="white"/>
<path d="M30.198 37.6049C30.1961 37.0475 29.9724 36.5137 29.5763 36.1206C29.1801 35.7275 28.6438 35.5073 28.085 35.5083H17.989V12.5125C17.9895 12.2462 17.9373 11.9824 17.8355 11.7363C17.7337 11.4901 17.5842 11.2663 17.3956 11.0779C17.207 10.8894 16.983 10.7398 16.7364 10.6378C16.4898 10.5358 16.2255 10.4833 15.9585 10.4833H10.6328V41.757H30.2018V37.6049H30.198Z" fill="white"/>
<path d="M20.4998 57.4556H17.9927V49.7953C21.5883 49.7092 23.1308 49.874 23.1308 53.588C23.1308 55.5087 22.6316 57.4668 20.5036 57.4668L20.4998 57.4556ZM26.5087 60.0053V59.9042C29.6088 58.4964 30.4007 56.119 30.4007 52.7906C30.4007 46.5792 27.3982 44.1793 21.3743 44.1793H10.6328V75.4606H17.9927V63.1053H20.4173C22.1287 63.2289 22.7142 64.4831 22.9244 66.4C22.9732 66.883 22.9732 70.8217 22.9694 73.3527C22.9703 73.4425 22.983 73.5319 23.007 73.6185C23.0687 74.1213 23.3112 74.5848 23.6894 74.9228C24.0676 75.2609 24.5559 75.4506 25.0637 75.4568H30.1568V64.0413C30.1568 61.7013 28.5654 60.4546 26.5199 59.994" fill="white"/>
<path d="M47.29 44.1532C46.7541 44.1581 46.2419 44.3742 45.865 44.7544C45.4882 45.1345 45.2773 45.6478 45.2783 46.1825C45.2783 46.2236 45.2783 46.2611 45.2783 46.3023V67.542C45.2783 68.8749 44.6966 70.5373 42.7862 70.5373C40.7069 70.5373 40.249 69.2456 40.249 67.7405V46.1787C40.2471 45.6444 40.034 45.1324 39.6559 44.7539C39.2779 44.3754 38.7654 44.1609 38.2298 44.1569H32.9379V66.7932C32.9379 73.218 36.5522 76.1757 42.7487 76.1757C50.225 76.1757 52.597 72.091 52.597 66.7932V44.1532H47.29Z" fill="white"/>
<path d="M62.7005 48.1068C65.6274 48.1068 68 45.7399 68 42.8202C68 39.9006 65.6274 37.5337 62.7005 37.5337C59.7737 37.5337 57.4011 39.9006 57.4011 42.8202C57.4011 45.7399 59.7737 48.1068 62.7005 48.1068Z" fill="#EC6608"/>
</g>
<defs>
<clipPath id="clip0">
<rect width="68" height="86" fill="white"/>
</clipPath>
</defs>
</svg>
